<?xml version="1.0" standalone="no"?>
<!DOCTYPE svg PUBLIC "-//W3C//DTD SVG 1.1//EN" "http://www.w3.org/Graphics/SVG/1.1/DTD/svg11.dtd" >
<svg xmlns="http://www.w3.org/2000/svg">
<metadata>Generated by IcoMoon</metadata>
<defs>
<font id="icomoon" horiz-adv-x="1024">
<font-face units-per-em="1024" ascent="960" descent="-64" />
<missing-glyph horiz-adv-x="1024" />
<glyph unicode="&#x20;" horiz-adv-x="512" d="" />
<glyph unicode="&#xe900;" glyph-name="access" d="M853.333 405.333c0-23.595-19.115-42.667-42.667-42.667h-597.333c-23.552 0-42.667 19.072-42.667 42.667v85.333c0 23.595 19.115 42.667 42.667 42.667h597.333c23.552 0 42.667-19.072 42.667-42.667v-85.333zM853.333 661.333c0-23.595-19.115-42.667-42.667-42.667h-597.333c-23.552 0-42.667 19.072-42.667 42.667v85.333c0 23.595 19.115 42.667 42.667 42.667h597.333c23.552 0 42.667-19.072 42.667-42.667v-85.333zM298.667 106.667h426.667v85.333h-426.667zM469.333 149.333h85.333v170.667h-85.333z" />
<glyph unicode="&#xe901;" glyph-name="account" d="M425.63 437.687c2.688-3.84 13.312-14.208 16.683-18.133 23.765-27.691 24.619-42.965 3.584-65.195-2.176-2.219-6.059-4.48-10.795-6.699l78.421-78.421c7.979-7.979 22.144-7.979 30.165 0l78.976 79.019c-0.853 0.64-1.963 1.323-2.56 1.963-21.077 22.229-27.008 35.243-3.243 62.976 5.504 6.4 10.112 12.8 13.909 18.816 29.141 29.867 67.541 73.515 67.541 144 0 122.667-42.667 213.333-166.699 213.333-131.968 0-174.635-88.917-174.635-213.333 0-68.267 32.683-107.307 68.651-138.325zM824.461 245.333c-25.643 46.891-106.325 68.736-159.019 85.376l-91.605-91.605c-12.032-12.075-28.117-18.688-45.269-18.688-17.109 0-33.195 6.613-45.227 18.688l-93.099 93.056c-56.832-17.109-138.453-40.149-163.029-85.035-36.309-66.389 7.424-109.227 31.104-122.069 23.765-12.843 84.565-18.389 174.891-18.389h205.952c90.325 0 151.125 5.547 174.848 18.389 23.765 12.843 46.805 53.931 10.453 120.277z" />
<glyph unicode="&#xe902;" glyph-name="dele" d="M128 661.333h426.667v85.333h-426.667zM128 490.667h256v85.333h-256zM128 320h213.333v85.333h-213.333zM839.876 277.414l-60.331-60.331-88.448 88.448-88.448-88.448-60.331 60.331 88.448 88.448-88.448 88.448 60.331 60.373 88.448-88.491 88.448 88.491 60.331-60.373-88.448-88.448 88.448-88.448zM689.775 600.913c-131.541 0-238.208-106.667-238.208-238.251 0-131.541 106.667-238.208 238.208-238.208s238.208 106.667 238.208 238.208c0 131.584-106.667 238.251-238.208 238.251v0z" />
<glyph unicode="&#xe903;" glyph-name="edit" d="M271.898 471.791l408.31 408.31c24.994 24.994 65.516 24.994 90.51 0l173.383-173.383c24.994-24.994 24.994-65.516 0-90.51l-408.31-408.31c-24.994-24.994-65.516-24.994-90.51 0l-173.383 173.383c-24.994 24.994-24.994 65.516 0 90.51v0zM453.462 341.669c-12.424-12.424-12.424-32.568 0-44.992s32.568-12.424 44.992 0l280.797 280.797c12.424 12.424 12.424 32.568 0 44.992s-32.568 12.424-44.992 0v0l-280.797-280.797zM64.593 36.52l51.789 258.933c3.307 16.532 19.39 27.254 35.923 23.948 5.91-1.182 11.338-4.087 15.6-8.348l207.154-207.147c11.922-11.922 11.922-31.251 0-43.172-4.262-4.262-9.69-7.166-15.6-8.348l-258.943-51.787c-16.533-3.306-32.616 7.415-35.923 23.948-0.79 3.952-0.79 8.022 0 11.974z" />
<glyph unicode="&#xe904;" glyph-name="exit" d="M533.34 341.376h-0.896c-35.328 0.512-63.616 29.525-63.104 64.896l5.888 426.624c0.469 35.328 30.677 61.781 64.853 63.104 35.328-0.512 63.616-29.525 63.147-64.853l-5.888-426.667c-0.512-35.029-29.056-63.104-64-63.104zM538.181-17.877c-109.611 0-212.693 42.667-290.176 120.192-160 160-160 420.352-0.043 580.352l90.496-90.496c-110.037-110.080-110.037-289.237 0.043-399.36 53.333-53.333 124.203-82.688 199.68-82.688s146.389 29.355 199.68 82.688c110.080 110.123 110.080 289.28 0.043 399.36l90.496 90.496c159.957-160 159.957-420.352-0.043-580.352-77.483-77.525-180.523-120.192-290.176-120.192z" />
<glyph unicode="&#xe905;" glyph-name="export" d="M642.291 449.207v157.995h103.765c17.579 0 26.667 20.949 14.677 33.749l-204.117 184.661c-7.936 8.491-21.376 8.491-29.312 0l-204.117-184.661c-11.989-12.8-2.901-33.749 14.635-33.749h103.808v-157.995zM445.333 194.167c-30.933 0-55.979 25.088-55.979 55.979 0 30.933 25.045 56.021 55.979 56.021s55.979-25.088 55.979-56.021c0-30.891-25.045-55.979-55.979-55.979zM274.667 194.167c-30.933 0-55.979 25.088-55.979 55.979 0 30.933 25.045 56.021 55.979 56.021s55.979-25.088 55.979-56.021c0-30.891-25.045-55.979-55.979-55.979zM853.355 359.501h-640c-23.595 0-42.667-19.072-42.667-42.667v-128c0-23.595 19.072-42.667 42.667-42.667h640c23.552 0 42.667 19.072 42.667 42.667v128c0 23.595-19.115 42.667-42.667 42.667z" />
<glyph unicode="&#xe906;" glyph-name="import" d="M441.626 789.333v-157.995h-103.765c-17.579 0-26.667-20.949-14.677-33.749l204.117-184.661c7.936-8.491 21.376-8.491 29.312 0l204.117 184.661c11.989 12.8 2.901 33.749-14.635 33.749h-103.808v157.995zM445.333 151.501c-30.933 0-55.979 25.088-55.979 55.979 0 30.933 25.045 56.021 55.979 56.021s55.979-25.088 55.979-56.021c0-30.891-25.045-55.979-55.979-55.979zM274.667 151.501c-30.933 0-55.979 25.088-55.979 55.979 0 30.933 25.045 56.021 55.979 56.021s55.979-25.088 55.979-56.021c0-30.891-25.045-55.979-55.979-55.979zM853.355 316.834h-640c-23.595 0-42.667-19.072-42.667-42.667v-128c0-23.595 19.072-42.667 42.667-42.667h640c23.552 0 42.667 19.072 42.667 42.667v128c0 23.595-19.115 42.667-42.667 42.667z" />
<glyph unicode="&#xe907;" glyph-name="infor" d="M298.667 533.333v85.333h426.667v-85.333h-426.667zM298.667 362.667v85.333h426.667v-85.333h-426.667zM298.667 192v85.333h256v-85.333h-256zM822.187 746.667l-105.728 100.181c-16.171 17.749-39.083 27.819-63.104 27.819h-440.021c-23.595 0-42.667-19.072-42.667-42.667v-810.667c0-23.509 19.157-42.667 42.667-42.667h588.459c23.424 0 42.667 19.157 42.667 42.667v667.819c0 21.248-7.979 41.771-22.272 57.515v0z" />
<glyph unicode="&#xe908;" glyph-name="login" d="M640 448h85.333v85.333h-85.333zM640 277.333h85.333v85.333h-85.333zM469.333 277.333h85.333v85.333h-85.333zM469.333 448h85.333v85.333h-85.333zM810.667 448v170.667h-597.333v-426.667h597.333v256zM853.333 704c23.552 0 42.667-19.072 42.667-42.667v-512c0-23.595-19.115-42.667-42.667-42.667h-682.667c-23.552 0-42.667 19.072-42.667 42.667v512c0 23.595 19.115 42.667 42.667 42.667h682.667zM298.667 277.333h85.333v85.333h-85.333zM298.667 448h85.333v85.333h-85.333zM256 704h128v85.333h-128zM640 704h128v85.333h-128z" />
<glyph unicode="&#xe909;" glyph-name="manual" d="M256 234.667v341.333h554.667v-341.333h-554.667zM317.355 736c30.933 0 55.979-25.088 55.979-55.979 0-30.933-25.045-56.021-55.979-56.021-30.976 0-56.021 25.088-56.021 56.021 0 30.891 25.045 55.979 56.021 55.979v0zM853.333 789.333h-640c-23.552 0-42.667-19.072-42.667-42.667v-554.667c0-23.595 19.115-42.667 42.667-42.667h640c23.552 0 42.667 19.072 42.667 42.667v554.667c0 23.595-19.115 42.667-42.667 42.667v0zM341.333 362.667h85.333v85.333h-85.333zM469.333 362.667h85.333v85.333h-85.333z" />
<glyph unicode="&#xe90a;" glyph-name="menuopen" d="M170.667 661.333h554.667v85.376h-554.667zM170.667 490.667h298.667v85.333h-298.667zM170.667 320h298.667v85.376h-298.667zM170.667 149.333h554.667v85.333h-554.667zM769.63 522.274l-126.421-71.211 125.397-71.168 127.403-71.211v284.8z" />
<glyph unicode="&#xe90b;" glyph-name="message" d="M682.667 277.333c0-23.595-19.115-42.667-42.667-42.667h-312.875l-113.792-85.333c-23.552 0-42.667 19.072-42.667 42.667v298.667c0 23.595 19.115 42.667 42.667 42.667h426.667c23.552 0 42.667-19.072 42.667-42.667v-213.333zM853.333 746.667h-426.667c-23.552 0-42.667-19.072-42.667-42.667v-85.333h341.333c23.552 0 42.667-19.072 42.667-42.667v-213.333h85.333c23.552 0 42.667 19.072 42.667 42.667v298.667c0 23.595-19.115 42.667-42.667 42.667z" />
<glyph unicode="&#xe90c;" glyph-name="notice" d="M341.363 85.338h298.667c0 0 0-128-149.333-128-106.667 0-149.333 85.333-149.333 128zM356.403 606.148l-85.333-1.109c-1.323 102.955 81.323 187.776 184.235 189.099l1.152-85.333c-55.936-0.725-100.779-46.763-100.053-102.656zM495.155 895.983c-181.76-2.347-326.784-159.573-324.48-341.333 1.621-121.813 85.333-213.333 170.667-256v-128h298.667v128c42.667 0 172.288 134.187 170.667 256-2.304 181.76-133.76 343.68-315.52 341.333z" />
<glyph unicode="&#xe90d;" glyph-name="part" d="M170.667 576h554.667v85.333h-554.667zM170.667 405.333h682.667v85.376h-682.667zM170.667 234.667h426.667v85.333h-426.667z" />
<glyph unicode="&#xe90e;" glyph-name="publish" d="M778.603 529.126c-11.648 20.395-11.648 53.589 0 73.941l85.717 149.675c11.648 20.437 1.963 36.608-21.504 36.608h-416.171v85.333h-128v-768h-128v-128h384v128h-128v256h416.171c23.467 0 33.152 6.4 21.504 26.795l-85.717 139.648z" />
<glyph unicode="&#xe90f;" glyph-name="role" d="M554.667 490.667v42.667h256v-42.667h-256zM554.667 405.333v42.667h256v-42.667h-256zM554.667 320v42.667h170.667v-42.667h-170.667zM482.688 285.355c-10.624-5.76-37.504-8.021-77.696-8.021h-91.733c-40.235 0-67.499 2.261-78.080 8.021-10.539 5.675-29.824 46.293-13.653 75.861s87.979 40.533 97.365 50.389c9.387 9.941 9.003 18.048-1.579 30.336-1.493 1.792-6.187 7.083-7.424 8.789-16.043 13.867-30.592 31.531-30.592 61.952 0 55.424 18.987 95.147 77.781 95.147 55.211 0 74.197-40.277 74.197-94.933 0-31.36-17.067-50.773-30.037-64.043-1.707-2.688-3.755-5.504-6.187-8.363-10.581-12.331-7.936-18.133 1.408-28.032 9.387-9.899 74.837-18.475 91.051-48.043 16.128-29.525 5.76-73.387-4.821-79.061v0zM853.333 704h-682.667c-23.552 0-42.667-19.072-42.667-42.667v-469.333c0-23.595 19.115-42.667 42.667-42.667h85.333v42.667h85.333v-42.667h341.333v42.667h85.333v-42.667h85.333c23.552 0 42.667 19.072 42.667 42.667v469.333c0 23.595-19.115 42.667-42.667 42.667v0z" />
<glyph unicode="&#xe910;" glyph-name="search" d="M661.419 362.667h-33.877l-11.776 11.691c41.6 48.512 66.901 111.403 66.901 180.309 0 153.173-124.16 277.333-277.333 277.333s-277.333-124.16-277.333-277.333c0-153.173 124.16-277.333 277.333-277.333 68.907 0 131.755 25.259 180.267 66.816l11.776-11.691v-33.792l213.248-212.949 63.616 63.616-212.821 213.333zM405.333 362.667c-106.069 0-192 85.931-192 192 0 106.027 85.931 192 192 192 106.027 0 192-85.973 192-192 0-106.069-85.973-192-192-192v0z" />
<glyph unicode="&#xe911;" glyph-name="system" d="M267.917 155.302c-12.757-8.704-30.080-8.704-42.795 0-22.869 15.573-22.869 48.597 0 64.128 12.715 8.704 30.037 8.704 42.795 0 22.869-15.531 22.869-48.555 0-64.128zM794.765 476.198c51.84 51.84 66.133 127.019 42.923 191.787-3.925 10.965-18.176 13.909-26.453 5.589l-105.771-105.728c-6.315-6.315-16.512-6.315-22.827 0l-55.637 55.68c-6.315 6.272-6.315 16.469 0 22.784l105.728 105.771c8.405 8.405 5.12 22.699-6.059 26.624-68.096 24.235-147.627 6.997-199.381-51.712-44.459-50.347-55.552-119.893-34.987-180.48l-296.576-296.533c-33.408-33.408-33.408-88.192 0-121.6 28.928-28.971 76.203-28.971 105.131 0l304.853 304.853c64.128-22.016 137.856-8.235 189.056 42.965zM707.042 333.513c-14.507 14.592-36.352 16.512-53.589 7.168l-23.765 23.723-50.048-50.048 23.68-23.765c-9.301-17.237-7.381-39.040 7.168-53.632l116.992-117.035c17.749-17.664 46.72-17.664 64.427 0l32.171 32.213c17.792 17.792 17.792 46.635 0 64.427l-117.035 116.949zM285.73 566.554c5.888-7.893 17.365-8.661 24.277-1.707l9.6 9.6 59.52-59.605 50.091 50.133-59.52 59.477 9.515 9.557c6.955 6.912 6.144 18.432-1.749 24.277l-147.755 110.763c-6.443 4.779-15.445 4.181-21.12-1.493l-32.128-32.128c-5.632-5.675-6.272-14.677-1.493-21.077l110.763-147.797z" />
<glyph unicode="&#xe912;" glyph-name="view" d="M0 448c60.875 184.404 265.488 320 508.53 320s447.655-135.596 508.53-320c-60.875-184.404-265.488-320-508.53-320s-447.655 135.596-508.53 320zM512 256c106.039 0 192 85.961 192 192s-85.961 192-192 192c-106.039 0-192-85.961-192-192s85.961-192 192-192zM512 544c0-53.019-42.981-96-96-96s-96 42.981-96 96c0 53.019 42.981 96 96 96s96-42.981 96-96z" />
<glyph unicode="&#xe913;" glyph-name="approve" d="M922.624 407.251l-290.688-290.688-198.656 198.656c-24.96 24.96-24.96 65.472 0 90.496 25.024 24.96 65.536 24.96 90.56 0l108.096-108.16 200.192 200.192c25.024 25.024 65.472 25.024 90.496 0s25.024-65.472 0-90.496zM459.2 675.539c-70.4 0-128-57.536-128-128v-435.52c0-70.4 57.6-128 128-128h435.584c70.4 0 128 57.6 128 128v435.52c0 70.464-57.6 128-128 128h-435.584zM564.685 960h-372.672c-70.4 0-128-57.6-128-128v-372.672c0-70.464 57.6-128 128-128h208v128h-208v372.672h372.672v-336h128v336c0 70.4-57.6 128-128 128z" />
<glyph unicode="&#xe914;" glyph-name="copy" d="M341.333 704c0-47.128-38.205-85.333-85.333-85.333s-85.333 38.205-85.333 85.333c0 47.128 38.205 85.333 85.333 85.333s85.333-38.205 85.333-85.333zM341.333 448c0-47.128-38.205-85.333-85.333-85.333s-85.333 38.205-85.333 85.333c0 47.128 38.205 85.333 85.333 85.333s85.333-38.205 85.333-85.333zM341.333 192c0-47.128-38.205-85.333-85.333-85.333s-85.333 38.205-85.333 85.333c0 47.128 38.205 85.333 85.333 85.333s85.333-38.205 85.333-85.333zM597.333 704c0-47.128-38.205-85.333-85.333-85.333s-85.333 38.205-85.333 85.333c0 47.128 38.205 85.333 85.333 85.333s85.333-38.205 85.333-85.333zM597.333 448c0-47.128-38.205-85.333-85.333-85.333s-85.333 38.205-85.333 85.333c0 47.128 38.205 85.333 85.333 85.333s85.333-38.205 85.333-85.333zM597.333 192c0-47.128-38.205-85.333-85.333-85.333s-85.333 38.205-85.333 85.333c0 47.128 38.205 85.333 85.333 85.333s85.333-38.205 85.333-85.333zM853.333 704c0-47.128-38.205-85.333-85.333-85.333s-85.333 38.205-85.333 85.333c0 47.128 38.205 85.333 85.333 85.333s85.333-38.205 85.333-85.333zM853.333 448c0-47.128-38.205-85.333-85.333-85.333s-85.333 38.205-85.333 85.333c0 47.128 38.205 85.333 85.333 85.333s85.333-38.205 85.333-85.333z" />
<glyph unicode="&#xe915;" glyph-name="key" d="M234.138 401.775l-3.115 255.957c-0.811 68.139 25.088 132.651 72.96 181.717s111.787 76.544 179.925 77.355l42.667 0.512c69.035 0.768 132.651-25.088 181.717-72.96s76.544-111.744 77.355-179.925l1.067-85.333-85.333-1.024-1.067 85.333c-0.512 45.355-18.859 87.936-51.627 119.893-32.725 31.957-75.392 48.768-121.088 48.683l-42.667-0.512c-45.355-0.512-87.893-18.859-119.851-51.627-31.957-32.725-49.237-75.733-48.725-121.131l3.115-255.957-85.333-0.981zM557.116 158.652l1.152-94.336-85.333-1.024-1.152 94.336c-37.845 16.043-64.64 53.163-65.152 96.853-0.725 58.923 46.464 107.264 105.344 107.947 58.923 0.725 107.264-46.421 107.947-105.344 0.555-43.733-25.387-81.536-62.805-98.432v0zM895.932 367.121c-0.555 46.891-39.424 84.864-86.357 84.267l-597.291-7.253c-46.933-0.555-84.864-39.424-84.267-86.357l3.627-298.624c0.555-46.976 39.424-84.864 86.357-84.309l597.291 7.253c46.933 0.597 84.864 39.424 84.267 86.4l-3.627 298.624z" />
<glyph unicode="&#xe916;" glyph-name="user" d="M528.064 669.875c-131.968 0-174.635-88.917-174.635-213.333 0-68.267 32.683-107.307 68.608-138.325 2.731-3.797 13.355-14.165 16.725-18.091 23.723-27.691 24.576-42.965 3.541-65.195-2.133-2.261-6.059-4.48-10.795-6.741l78.421-78.379c8.021-8.021 22.144-8.021 30.165 0l78.976 78.976c-0.853 0.683-1.92 1.323-2.56 2.005-21.035 22.187-27.008 35.243-3.2 62.976 5.504 6.4 10.069 12.757 13.867 18.773 29.141 29.867 67.584 73.557 67.584 144 0 122.667-42.667 213.333-166.699 213.333zM812.062 137.916c-31.829 38.571-102.315 58.24-150.229 73.387l-91.563-91.691c-12.075-12.032-28.117-18.645-45.269-18.645-17.109 0-33.195 6.613-45.227 18.645l-93.099 93.099c-50.688-15.275-120.832-35.371-152.917-71.381-75.776 75.051-122.837 179.029-122.837 293.888 0 228.181 185.643 413.867 413.867 413.867s413.867-185.685 413.867-413.867c0-116.693-48.683-221.952-126.592-297.301zM524.787 917.35c-265.856 0-482.133-216.32-482.133-482.133 0-265.856 216.277-482.133 482.133-482.133s482.133 216.277 482.133 482.133c0 265.813-216.277 482.133-482.133 482.133z" />
</font>
</defs>
</svg>
