<?xml version="1.0" encoding="UTF-8"?>
<svg width="24px" height="24px" viewBox="0 0 24 24" version="1.1" xmlns="http://www.w3.org/2000/svg" xmlns:xlink="http://www.w3.org/1999/xlink">
    <!-- Generator: Sketch 47.1 (45422) - http://www.bohemiancoding.com/sketch -->
    <title>icon grey/access</title>
    <desc>Created with Sketch.</desc>
    <defs>
        <polygon id="path-1" points="0 16 16 16 16 0 0 0"></polygon>
    </defs>
    <g id="Symbols" stroke="none" stroke-width="1" fill="none" fill-rule="evenodd">
        <g id="icon-grey/access">
            <g id="Page-1" transform="translate(4.000000, 4.000000)">
                <path d="M16,9 C16,9.553 15.552,10 15,10 L1,10 C0.448,10 0,9.553 0,9 L0,7 C0,6.447 0.448,6 1,6 L15,6 C15.552,6 16,6.447 16,7 L16,9 Z" id="Fill-1" fill="#999999"></path>
                <path d="M16,3 C16,3.553 15.552,4 15,4 L1,4 C0.448,4 0,3.553 0,3 L0,1 C0,0.447 0.448,0 1,0 L15,0 C15.552,0 16,0.447 16,1 L16,3 Z" id="Fill-3" fill="#999999"></path>
                <mask id="mask-2" fill="white">
                    <use xlink:href="#path-1"></use>
                </mask>
                <g id="Clip-6"></g>
                <polygon id="Fill-5" fill="#999999" mask="url(#mask-2)" points="3 16 13 16 13 14 3 14"></polygon>
                <polygon id="Fill-7" fill="#999999" mask="url(#mask-2)" points="7 15 9 15 9 11 7 11"></polygon>
            </g>
        </g>
    </g>
</svg>