<?xml version="1.0" encoding="UTF-8"?>
<svg width="24px" height="24px" viewBox="0 0 24 24" version="1.1" xmlns="http://www.w3.org/2000/svg" xmlns:xlink="http://www.w3.org/1999/xlink">
    <!-- Generator: Sketch 47.1 (45422) - http://www.bohemiancoding.com/sketch -->
    <title>icon grey/account</title>
    <desc>Created with Sketch.</desc>
    <defs>
        <polygon id="path-1" points="0.3667 3.55271368e-15 8.3667 3.55271368e-15 8.3667 12.32995 0.3667 12.32995 0.3667 0"></polygon>
        <polygon id="path-3" points="7.38352303 16 0 16 0 0 14.767 0 14.767 16 7.38352303 16 14.7670613 16 14.7670613 10.715 4.60605887e-05 10.715 4.60605887e-05 16"></polygon>
    </defs>
    <g id="Symbols" stroke="none" stroke-width="1" fill="none" fill-rule="evenodd">
        <g id="icon-grey/account">
            <g id="Page-1" transform="translate(5.000000, 4.000000)">
                <g id="Group-3" transform="translate(3.000000, 0.000000)">
                    <mask id="mask-2" fill="white">
                        <use xlink:href="#path-1"></use>
                    </mask>
                    <g id="Clip-2"></g>
                    <path d="M1.9757,8.2417 C2.0387,8.3317 2.2877,8.5747 2.3667,8.6667 C2.9237,9.3157 2.9437,9.6737 2.4507,10.1947 C2.3997,10.2467 2.3087,10.2997 2.1977,10.3517 L4.0357,12.1897 C4.2227,12.3767 4.5547,12.3767 4.7427,12.1897 L6.5937,10.3377 C6.5737,10.3227 6.5477,10.3067 6.5337,10.2917 C6.0397,9.7707 5.9007,9.4657 6.4577,8.8157 C6.5867,8.6657 6.6947,8.5157 6.7837,8.3747 C7.4667,7.6747 8.3667,6.6517 8.3667,4.9997 C8.3667,2.1247 7.3667,-0.0003 4.4597,-0.0003 C1.3667,-0.0003 0.3667,2.0837 0.3667,4.9997 C0.3667,6.5997 1.1327,7.5147 1.9757,8.2417" id="Fill-1" fill="#999999" mask="url(#mask-2)"></path>
                </g>
                <g id="Group-6">
                    <path d="M14.3233,12.75 C13.7223,11.651 11.8313,11.139 10.5963,10.749 L8.4493,12.896 C8.1673,13.179 7.7903,13.334 7.3883,13.334 C6.9873,13.334 6.6103,13.179 6.3283,12.896 L4.1463,10.715 C2.8143,11.116 0.9013,11.656 0.3253,12.708 C-0.5257,14.264 0.4993,15.268 1.0543,15.569 C1.6113,15.87 3.0363,16 5.1533,16 L7.5673,16 L9.9803,16 C12.0973,16 13.5223,15.87 14.0783,15.569 C14.6353,15.268 15.1753,14.305 14.3233,12.75" id="Fill-4" fill="#999999"></path>
                    <mask id="mask-4" fill="white">
                        <use xlink:href="#path-3"></use>
                    </mask>
                    <g id="Clip-5"></g>
                </g>
            </g>
        </g>
    </g>
</svg>