<?xml version="1.0" encoding="UTF-8"?>
<svg width="24px" height="24px" viewBox="0 0 24 24" version="1.1" xmlns="http://www.w3.org/2000/svg" xmlns:xlink="http://www.w3.org/1999/xlink">
    <!-- Generator: Sketch 47.1 (45422) - http://www.bohemiancoding.com/sketch -->
    <title>icon grey/dele</title>
    <desc>Created with Sketch.</desc>
    <defs></defs>
    <g id="Symbols" stroke="none" stroke-width="1" fill="none" fill-rule="evenodd">
        <g id="icon-grey/dele" fill="#999999">
            <g id="Page-1" transform="translate(3.000000, 5.000000)">
                <polygon id="Fill-1" points="0 2 10 2 10 0 0 0"></polygon>
                <polygon id="Fill-2" points="0 6 6 6 6 4 0 4"></polygon>
                <polygon id="Fill-3" points="0 10 5 10 5 8 0 8"></polygon>
                <g id="Group-6" transform="translate(7.000000, 2.583000)">
                    <path d="M9.6846,8.4151 L8.2706,9.8291 L6.1976,7.7561 L4.1246,9.8291 L2.7106,8.4151 L4.7836,6.3421 L2.7106,4.2691 L4.1246,2.8541 L6.1976,4.9281 L8.2706,2.8541 L9.6846,4.2691 L7.6116,6.3421 L9.6846,8.4151 Z M6.1666,0.8331 C3.0836,0.8331 0.5836,3.3331 0.5836,6.4171 C0.5836,9.5001 3.0836,12.0001 6.1666,12.0001 C9.2496,12.0001 11.7496,9.5001 11.7496,6.4171 C11.7496,3.3331 9.2496,0.8331 6.1666,0.8331 L6.1666,0.8331 Z" id="Fill-4"></path>
                </g>
            </g>
        </g>
    </g>
</svg>