<?xml version="1.0" encoding="UTF-8"?>
<svg width="24px" height="24px" viewBox="0 0 24 24" version="1.1" xmlns="http://www.w3.org/2000/svg" xmlns:xlink="http://www.w3.org/1999/xlink">
    <!-- Generator: Sketch 47.1 (45422) - http://www.bohemiancoding.com/sketch -->
    <title>icon grey/import</title>
    <desc>Created with Sketch.</desc>
    <defs>
        <polygon id="path-1" points="0.446884285 0.926 10.9573466 0.926 10.9573466 9.89705 0.446884285 9.89705"></polygon>
        <polygon id="path-3" points="17 0 17 5 8.50025 5 0.0005 5 0.0005 0"></polygon>
    </defs>
    <g id="Symbols" stroke="none" stroke-width="1" fill="none" fill-rule="evenodd">
        <g id="icon-grey/import">
            <g id="Page-1" transform="translate(4.000000, 3.000000)">
                <g id="Group-3" transform="translate(3.000000, 0.074200)">
                    <mask id="mask-2" fill="white">
                        <use xlink:href="#path-1"></use>
                    </mask>
                    <g id="Clip-2"></g>
                    <path d="M3.3506,0.9258 L3.3506,4.6288 L0.9186,4.6288 C0.5066,4.6288 0.2936,5.1198 0.5746,5.4198 L5.3586,9.7478 C5.5446,9.9468 5.8596,9.9468 6.0456,9.7478 L10.8296,5.4198 C11.1106,5.1198 10.8976,4.6288 10.4866,4.6288 L8.0536,4.6288 L8.0536,0.9258" id="Fill-1" fill="#999999" mask="url(#mask-2)"></path>
                </g>
                <g id="Group-6" transform="translate(0.000000, 12.074200)">
                    <mask id="mask-4" fill="white">
                        <use xlink:href="#path-3"></use>
                    </mask>
                    <g id="Clip-5"></g>
                    <path d="M6.4375,3.875 C5.7125,3.875 5.1255,3.287 5.1255,2.563 C5.1255,1.838 5.7125,1.25 6.4375,1.25 C7.1625,1.25 7.7495,1.838 7.7495,2.563 C7.7495,3.287 7.1625,3.875 6.4375,3.875 M2.4375,3.875 C1.7125,3.875 1.1255,3.287 1.1255,2.563 C1.1255,1.838 1.7125,1.25 2.4375,1.25 C3.1625,1.25 3.7495,1.838 3.7495,2.563 C3.7495,3.287 3.1625,3.875 2.4375,3.875 M16.0005,0 L1.0005,0 C0.4475,0 0.0005,0.447 0.0005,1 L0.0005,4 C0.0005,4.553 0.4475,5 1.0005,5 L16.0005,5 C16.5525,5 17.0005,4.553 17.0005,4 L17.0005,1 C17.0005,0.447 16.5525,0 16.0005,0" id="Fill-4" fill="#999999" mask="url(#mask-4)"></path>
                </g>
            </g>
        </g>
    </g>
</svg>