<?xml version="1.0" encoding="UTF-8"?>
<svg width="24px" height="24px" viewBox="0 0 24 24" version="1.1" xmlns="http://www.w3.org/2000/svg" xmlns:xlink="http://www.w3.org/1999/xlink">
    <!-- Generator: Sketch 47.1 (45422) - http://www.bohemiancoding.com/sketch -->
    <title>icon grey/infor</title>
    <desc>Created with Sketch.</desc>
    <defs></defs>
    <g id="Symbols" stroke="none" stroke-width="1" fill="none" fill-rule="evenodd">
        <g id="icon-grey/infor" fill="#666666">
            <path d="M8,10 L16,10 L16,8 L8,8 L8,10 Z M8,13 L16,13 L16,11 L8,11 L8,13 Z M8,16 L12,16 L12,14 L8,14 L8,16 Z M18.373,6 L15.844,3.652 C15.465,3.236 14.876,3 14.313,3 L6,3 C5.447,3 5,3.447 5,4 L5,20 C5,20.551 5.449,21 6,21 L17.792,21 C18.341,21 19,20.551 19,20 L19,7.348 C19,6.85 18.709,6.369 18.373,6 L18.373,6 Z" id="Page-1"></path>
        </g>
    </g>
</svg>