<?xml version="1.0" encoding="UTF-8"?>
<svg width="24px" height="24px" viewBox="0 0 24 24" version="1.1" xmlns="http://www.w3.org/2000/svg" xmlns:xlink="http://www.w3.org/1999/xlink">
    <!-- Generator: Sketch 47.1 (45422) - http://www.bohemiancoding.com/sketch -->
    <title>icon grey/manual</title>
    <desc>Created with Sketch.</desc>
    <defs></defs>
    <g id="Symbols" stroke="none" stroke-width="1" fill="none" fill-rule="evenodd">
        <g id="icon-grey/manual" fill="#999999">
            <g id="Page-1" transform="translate(4.000000, 4.000000)">
                <path d="M2,13 L15,13 L15,5 L2,5 L2,13 Z M3.438,1.25 C4.163,1.25 4.75,1.838 4.75,2.562 C4.75,3.287 4.163,3.875 3.438,3.875 C2.712,3.875 2.125,3.287 2.125,2.562 C2.125,1.838 2.712,1.25 3.438,1.25 L3.438,1.25 Z M16,0 L1,0 C0.448,0 0,0.447 0,1 L0,14 C0,14.553 0.448,15 1,15 L16,15 C16.552,15 17,14.553 17,14 L17,1 C17,0.447 16.552,0 16,0 L16,0 Z" id="Fill-1"></path>
                <polygon id="Fill-3" points="4 10 6 10 6 8 4 8"></polygon>
                <polygon id="Fill-4" points="7 10 9 10 9 8 7 8"></polygon>
            </g>
        </g>
    </g>
</svg>