<?xml version="1.0" encoding="UTF-8"?>
<svg width="24px" height="24px" viewBox="0 0 24 24" version="1.1" xmlns="http://www.w3.org/2000/svg" xmlns:xlink="http://www.w3.org/1999/xlink">
    <!-- Generator: Sketch 47.1 (45422) - http://www.bohemiancoding.com/sketch -->
    <title>icon grey/message</title>
    <desc>Created with Sketch.</desc>
    <defs></defs>
    <g id="Symbols" stroke="none" stroke-width="1" fill="none" fill-rule="evenodd">
        <g id="icon-grey/message" fill="#999999">
            <g id="Page-1" transform="translate(4.000000, 5.000000)">
                <path d="M12,11 C12,11.553 11.552,12 11,12 L3.667,12 L1,14 C0.448,14 0,13.553 0,13 L0,6 C0,5.447 0.448,5 1,5 L11,5 C11.552,5 12,5.447 12,6 L12,11 Z" id="Fill-1"></path>
                <path d="M16,0 L6,0 C5.448,0 5,0.447 5,1 L5,3 L13,3 C13.552,3 14,3.447 14,4 L14,9 L16,9 C16.552,9 17,8.553 17,8 L17,1 C17,0.447 16.552,0 16,0" id="Fill-3"></path>
            </g>
        </g>
    </g>
</svg>