<?xml version="1.0" encoding="UTF-8"?>
<svg width="24px" height="24px" viewBox="0 0 24 24" version="1.1" xmlns="http://www.w3.org/2000/svg" xmlns:xlink="http://www.w3.org/1999/xlink">
    <!-- Generator: Sketch 47.1 (45422) - http://www.bohemiancoding.com/sketch -->
    <title>icon grey/role</title>
    <desc>Created with Sketch.</desc>
    <defs></defs>
    <g id="Symbols" stroke="none" stroke-width="1" fill="none" fill-rule="evenodd">
        <g id="icon-grey/role" fill="#999999">
            <path d="M13,11 L19,11 L19,10 L13,10 L13,11 Z M13,13 L19,13 L19,12 L13,12 L13,13 Z M13,15 L17,15 L17,14 L13,14 L13,15 Z M11.313,15.812 C11.064,15.947 10.434,16 9.492,16 L8.417,16 L7.342,16 C6.399,16 5.76,15.947 5.512,15.812 C5.265,15.679 4.813,14.727 5.192,14.034 C5.571,13.341 7.254,13.084 7.474,12.853 C7.694,12.62 7.685,12.43 7.437,12.142 C7.402,12.1 7.292,11.976 7.263,11.936 C6.887,11.611 6.546,11.197 6.546,10.484 C6.546,9.185 6.991,8.254 8.369,8.254 C9.663,8.254 10.108,9.198 10.108,10.479 C10.108,11.214 9.708,11.669 9.404,11.98 C9.364,12.043 9.316,12.109 9.259,12.176 C9.011,12.465 9.073,12.601 9.292,12.833 C9.512,13.065 11.046,13.266 11.426,13.959 C11.804,14.651 11.561,15.679 11.313,15.812 L11.313,15.812 Z M20,6 L4,6 C3.448,6 3,6.447 3,7 L3,18 C3,18.553 3.448,19 4,19 L6,19 L6,18 L8,18 L8,19 L16,19 L16,18 L18,18 L18,19 L20,19 C20.552,19 21,18.553 21,18 L21,7 C21,6.447 20.552,6 20,6 L20,6 Z" id="Page-1"></path>
        </g>
    </g>
</svg>