<?xml version="1.0" encoding="UTF-8"?>
<svg width="24px" height="24px" viewBox="0 0 24 24" version="1.1" xmlns="http://www.w3.org/2000/svg" xmlns:xlink="http://www.w3.org/1999/xlink">
    <!-- Generator: Sketch 47.1 (45422) - http://www.bohemiancoding.com/sketch -->
    <title>icon grey/system</title>
    <desc>Created with Sketch.</desc>
    <defs>
        <polygon id="path-1" points="15.8857755 16 0 16 0 0 15.886 0 15.886 16 15.8857755 0.000261728395 5e-05 0.000261728395 5e-05 16.00045 15.8857755 16.00045"></polygon>
    </defs>
    <g id="Symbols" stroke="none" stroke-width="1" fill="none" fill-rule="evenodd">
        <g id="icon-grey/system">
            <g id="Page-1" transform="translate(4.000000, 4.000000)">
                <g id="Group-3" transform="translate(0.000000, -0.000100)">
                    <path d="M2.2793,14.8602 C1.9803,15.0642 1.5743,15.0642 1.2763,14.8602 C0.7403,14.4952 0.7403,13.7212 1.2763,13.3572 C1.5743,13.1532 1.9803,13.1532 2.2793,13.3572 C2.8153,13.7212 2.8153,14.4952 2.2793,14.8602 M14.6273,7.3392 C15.8423,6.1242 16.1773,4.3622 15.6333,2.8442 C15.5413,2.5872 15.2073,2.5182 15.0133,2.7132 L12.5343,5.1912 C12.3863,5.3392 12.1473,5.3392 11.9993,5.1912 L10.6953,3.8862 C10.5473,3.7392 10.5473,3.5002 10.6953,3.3522 L13.1733,0.8732 C13.3703,0.6762 13.2933,0.3412 13.0313,0.2492 C11.4353,-0.3188 9.5713,0.0852 8.3583,1.4612 C7.3163,2.6412 7.0563,4.2712 7.5383,5.6912 L0.5873,12.6412 C-0.1957,13.4242 -0.1957,14.7082 0.5873,15.4912 C1.2653,16.1702 2.3733,16.1702 3.0513,15.4912 L10.1963,8.3462 C11.6993,8.8622 13.4273,8.5392 14.6273,7.3392" id="Fill-1" fill="#999999"></path>
                    <mask id="mask-2" fill="white">
                        <use xlink:href="#path-1"></use>
                    </mask>
                    <g id="Clip-2"></g>
                </g>
                <path d="M12.5713,10.6833 C12.2313,10.3413 11.7193,10.2963 11.3153,10.5153 L10.7583,9.9593 L9.5853,11.1323 L10.1403,11.6893 C9.9223,12.0933 9.9673,12.6043 10.3083,12.9463 L13.0503,15.6893 C13.4663,16.1033 14.1453,16.1033 14.5603,15.6893 L15.3143,14.9343 C15.7313,14.5173 15.7313,13.8413 15.3143,13.4243 L12.5713,10.6833 Z" id="Fill-4" fill="#999999"></path>
                <path d="M2.6968,5.2214 C2.8348,5.4064 3.1038,5.4244 3.2658,5.2614 L3.4908,5.0364 L4.8858,6.4334 L6.0598,5.2584 L4.6648,3.8644 L4.8878,3.6404 C5.0508,3.4784 5.0318,3.2084 4.8468,3.0714 L1.3838,0.4754 C1.2328,0.3634 1.0218,0.3774 0.8888,0.5104 L0.1358,1.2634 C0.0038,1.3964 -0.0112,1.6074 0.1008,1.7574 L2.6968,5.2214 Z" id="Fill-6" fill="#999999"></path>
            </g>
        </g>
    </g>
</svg>